# xmcd
#
# Track frame offsets:
#	150
#	15804
#	33601
#	49088
#	65591
#	81113
#	97278
#	115660
#	136918
#	152572
#	170369
#	185856
#	202359
#	217969
#	234134
#	252525
#
# Disc length: 3648 seconds
#
# Revision: 2
# Processed by: cddbd v1.5.2PL0 Copyright (c) Steve Scherf et al.
# Submitted via: audiograbber 1.83.01
#
DISCID=de0e3e10
DTITLE=in the style of - Hot Pop Hits 2004 SDK-9029
DYEAR=2004
DGENRE=
TTITLE0=Britney Spears - Toxic (Vocal)
TTITLE1=No Doubt - It's My Life (Vocal)
TTITLE2=Avril Lavigne - Don't Tell Me (Vocal)
TTITLE3=Hillary Duff - Come Clean (Vocal)
TTITLE4=Sarah McLachlan - Stupid (Vocal)
TTITLE5=Barenakes Ladies - Testing 1,2,3 (Vocal)
TTITLE6=Five For Fighting - 100 Years (Vocal)
TTITLE7=Jewel - 2 Become 1 (Vocal)
TTITLE8=Britney Spears - Toxic
TTITLE9=No Doubt - It's My Life
TTITLE10=Avril Lavigne - Dont't Tell Me
TTITLE11=Hillary Duff - Come Clean
TTITLE12=Sarah McLachlan - Stupid
TTITLE13=Barenaked Ladies - Testing 1, 2, 3,
TTITLE14=Five For Fighting - 100 Years
TTITLE15=Jewel - 2 Become 1
EXTD=Karaoke Disc. All tracks in the style of, not by the original artists.
EXTT0=
EXTT1=
EXTT2=
EXTT3=
EXTT4=
EXTT5=
EXTT6=
EXTT7=
EXTT8=
EXTT9=
EXTT10=
EXTT11=
EXTT12=
EXTT13=
EXTT14=
EXTT15=
PLAYORDER=
